HIERARCHY
ROOT Hips
{
    OFFSET 0.000000 0.000000 0.000000
    CHANNELS 6 Xposition Yposition Zposition Zrotation Xrotation Yrotation
    JOINT Spine
    {
        OFFSET -0.000000 7.236184 0.000000
        CHANNELS 3 Zrotation Xrotation Yrotation
        JOINT Spine1
        {
            OFFSET -0.000000 20.420147 0.000000
            CHANNELS 3 Zrotation Xrotation Yrotation
            JOINT Neck
            {
                OFFSET -0.000000 20.336288 1.848754
                CHANNELS 3 Zrotation Xrotation Yrotation
                JOINT Head
                {
                    OFFSET -0.000000 12.354461 -1.764923
                    CHANNELS 3 Zrotation Xrotation Yrotation
                    End Site
                    {
                        OFFSET -0.000000 22.061537 0.000000
                    }
                }
            }
            JOINT LeftShoulder
            {
                OFFSET 3.573296 18.396038 -0.314103
                CHANNELS 3 Zrotation Xrotation Yrotation
                JOINT LeftArm
                {
                    OFFSET 10.880760 0.000000 0.000000
                    CHANNELS 3 Zrotation Xrotation Yrotation
                    JOINT LeftForeArm
                    {
                        OFFSET 27.185530 0.000000 0.000000
                        CHANNELS 3 Zrotation Xrotation Yrotation
                        JOINT LeftHand
                        {
                            OFFSET 27.825975 0.000000 0.000000
                            CHANNELS 3 Zrotation Xrotation Yrotation
                            End Site
                            {
                                OFFSET 13.236923 0.000000 0.000000
                            }
                        }
                    }
                }
            }
            JOINT RightShoulder
            {
                OFFSET -3.474926 18.396038 -0.314103
                CHANNELS 3 Zrotation Xrotation Yrotation
                JOINT RightArm
                {
                    OFFSET -10.880760 0.000000 0.000000
                    CHANNELS 3 Zrotation Xrotation Yrotation
                    JOINT RightForeArm
                    {
                        OFFSET -27.185530 0.000000 0.000000
                        CHANNELS 3 Zrotation Xrotation Yrotation
                        JOINT RightHand
                        {
                            OFFSET -27.825975 0.000000 0.000000
                            CHANNELS 3 Zrotation Xrotation Yrotation
                            End Site
                            {
                                OFFSET -13.236923 0.000000 0.000000
                            }
                        }
                    }
                }
            }
        }
    }
    JOINT LeftUpLeg
    {
        OFFSET 8.824615 0.000000 0.000000
        CHANNELS 3 Zrotation Xrotation Yrotation
        JOINT LeftLeg
        {
            OFFSET -0.000000 -35.111282 0.000000
            CHANNELS 3 Zrotation Xrotation Yrotation
            JOINT LeftFoot
            {
                OFFSET -0.000000 -42.324711 0.000000
                CHANNELS 3 Zrotation Xrotation Yrotation
                JOINT LeftToeBase
                {
                    OFFSET -0.000000 -5.735999 13.236923
                    CHANNELS 3 Zrotation Xrotation Yrotation
                    End Site
                    {
                        OFFSET -0.000000 0.000000 3.529846
                    }
                }
            }
        }
    }
    JOINT RightUpLeg
    {
        OFFSET -8.824615 0.000000 0.000000
        CHANNELS 3 Zrotation Xrotation Yrotation
        JOINT RightLeg
        {
            OFFSET -0.000000 -35.111282 0.000000
            CHANNELS 3 Zrotation Xrotation Yrotation
            JOINT RightFoot
            {
                OFFSET -0.000000 -42.324711 0.000000
                CHANNELS 3 Zrotation Xrotation Yrotation
                JOINT RightToeBase
                {
                    OFFSET -0.000000 -5.735999 13.236923
                    CHANNELS 3 Zrotation Xrotation Yrotation
                    End Site
                    {
                        OFFSET -0.000000 0.000000 3.529846
                    }
                }
            }
        }
    }
}
MOTION
Frames:    12
Frame Time:    0.008333
-4.661150    82.600952    110.982468    0.038573    -8.840587    -168.338150    -4.106642    -9.524341    -1.675116    0.950543    8.630044    -1.404575    0.863562    9.291313    -5.440721    14.327202    2.611070    -3.994246    6.414738    11.376408    -16.339920    -35.692120    20.072489    -68.749306    10.833095    -37.871387    -116.069107    21.222313    -21.136703    9.551861    -0.566861    10.763917    7.970677    44.561539    4.786239    52.826332    -7.448737    -37.234657    125.606300    -21.309196    -23.021681    -10.123053    7.622296    -17.228182    3.442037    -0.823283    19.719658    16.182182    -9.529271    -5.931275    -12.078864    -0.203252    -0.434912    0.225475    -10.838735    -8.031506    -2.696474    10.305778    17.102257    -9.645291    -3.548243    -12.004643    -24.255352    20.617117    -68.811432    -31.104527    
-4.718164    82.602417    110.973427    0.009777    -8.829234    -168.447952    -4.090908    -9.530754    -1.676414    0.916018    8.553987    -1.403760    0.861176    9.327110    -5.432630    14.278584    2.642154    -3.995144    6.432924    11.213343    -16.397869    -35.727306    19.996357    -68.657112    10.832489    -37.897552    -116.096169    21.307072    -21.146587    9.588350    -0.670817    10.602138    8.007635    44.537502    4.662772    52.774136    -7.414010    -37.264004    125.626678    -21.414127    -23.097813    -10.159375    7.588482    -17.160677    3.510733    -0.831476    19.703901    16.201151    -9.534185    -5.973412    -12.078477    -0.197895    -0.435977    0.219532    -10.892460    -7.971046    -2.617465    10.304116    16.996557    -9.644323    -3.517919    -11.976620    -24.211187    20.610300    -68.802917    -31.089191    
-4.774551    82.603836    110.964249    -0.018725    -8.817597    -168.557434    -4.075063    -9.536970    -1.677694    0.881176    8.478026    -1.402934    0.859706    9.362641    -5.424404    14.230144    2.672300    -3.995772    6.452043    11.052690    -16.455425    -35.763206    19.918663    -68.565605    10.831410    -37.922112    -116.123032    21.388680    -21.155920    9.622290    -0.774402    10.441428    8.044433    44.515217    4.537810    52.723068    -7.378337    -37.291306    125.646904    -21.517136    -23.173824    -10.194296    7.555024    -17.093719    3.577694    -0.839937    19.688995    16.221323    -9.538747    -6.015467    -12.077582    -0.192832    -0.437245    0.213916    -10.945730    -7.910682    -2.539062    10.302509    16.891239    -9.642962    -3.487930    -11.948486    -24.167063    20.603710    -68.794601    -31.074295    
-4.829304    82.605133    110.954857    -0.046536    -8.805701    -168.665466    -4.059443    -9.543065    -1.678873    0.846230    8.403220    -1.402088    0.859450    9.396996    -5.416084    14.182981    2.700656    -3.995993    6.472791    10.898606    -16.510202    -35.799828    19.839716    -68.478783    10.829527    -37.943336    -116.149765    21.464104    -21.163914    9.651784    -0.875965    10.284042    8.079585    44.494904    4.413295    52.674046    -7.341209    -37.315174    125.669411    -21.616177    -23.248558    -10.227198    7.522502    -17.028292    3.640840    -0.848792    19.675804    16.243736    -9.542766    -6.056964    -12.075925    -0.188100    -0.438228    0.208668    -10.997443    -7.850983    -2.462962    10.300504    16.787729    -9.640706    -3.458642    -11.921011    -24.122971    20.597178    -68.786674    -31.059748    
-4.882392    82.606300    110.945107    -0.073665    -8.793316    -168.772766    -4.043925    -9.549090    -1.680050    0.810674    8.329438    -1.401211    0.860511    9.429810    -5.407499    14.137506    2.727100    -3.995571    6.495848    10.752330    -16.561327    -35.837605    19.758289    -68.398201    10.826415    -37.960239    -116.176598    21.531681    -21.170273    9.675587    -0.975292    10.130204    8.113061    44.476044    4.288327    52.627281    -7.301788    -37.334908    125.696236    -21.710911    -23.322008    -10.258076    7.491003    -16.964117    3.699437    -0.858159    19.664707    16.269611    -9.546217    -6.098083    -12.073150    -0.183846    -0.439463    0.203949    -11.047583    -7.791682    -2.388863    10.298255    16.685787    -9.637069    -3.430251    -11.894051    -24.078926    20.590765    -68.779533    -31.045860    
-4.933005    82.607338    110.935005    -0.099810    -8.780638    -168.878464    -4.028937    -9.555332    -1.681242    0.775032    8.258066    -1.400371    0.862626    9.460397    -5.398605    14.094881    2.750607    -3.994196    6.521490    10.616439    -16.607143    -35.876228    19.675678    -68.326035    10.822268    -37.972469    -116.203209    21.589920    -21.174637    9.692760    -1.070810    9.983047    8.143775    44.458050    4.164626    52.584450    -7.260825    -37.350304    125.727936    -21.799545    -23.392910    -10.286947    7.460880    -16.902023    3.752080    -0.867943    19.656006    16.300144    -9.549186    -6.138157    -12.069614    -0.180032    -0.440706    0.199718    -11.095484    -7.733747    -2.317948    10.295786    16.587036    -9.631502    -3.403184    -11.868028    -24.035440    20.584532    -68.773331    -31.032871    
-4.981256    82.608231    110.924408    -0.124959    -8.767371    -168.983490    -4.014471    -9.561852    -1.682483    0.739387    8.189340    -1.399575    0.865630    9.487437    -5.389322    14.055054    2.772066    -3.991880    6.549201    10.489907    -16.647598    -35.916199    19.592564    -68.261429    10.817347    -37.980148    -116.229698    21.638363    -21.176865    9.703353    -1.161903    9.843102    8.170962    44.439568    4.041739    52.546776    -7.218205    -37.360973    125.765091    -21.882338    -23.460564    -10.313996    7.432410    -16.841335    3.798689    -0.878431    19.649733    16.335886    -9.551663    -6.177565    -12.064857    -0.176843    -0.442047    0.196181    -11.141130    -7.676912    -2.249524    10.293308    16.491297    -9.623565    -3.377424    -11.842829    -23.992760    20.578568    -68.767723    -31.020685    
-5.027681    82.609001    110.913109    -0.149410    -8.753295    -169.089706    -4.000593    -9.569178    -1.683871    0.703570    8.123082    -1.398832    0.869528    9.510826    -5.379380    14.017438    2.791501    -3.988452    6.579553    10.370943    -16.683355    -35.958286    19.508450    -68.202957    10.811934    -37.983860    -116.256119    21.677446    -21.176973    9.708064    -1.249140    9.709773    8.194869    44.419411    3.918202    52.514435    -7.174228    -37.367516    125.807938    -21.959932    -23.525232    -10.339360    7.405320    -16.780901    3.840080    -0.889615    19.645428    16.377964    -9.553845    -6.216577    -12.059115    -0.174056    -0.443810    0.193090    -11.185022    -7.620737    -2.182881    10.290775    16.397869    -9.612788    -3.352593    -11.818097    -23.950148    20.572901    -68.762955    -31.009365    
-5.071644    82.609627    110.901199    -0.172850    -8.738546    -169.196472    -3.987871    -9.577665    -1.685170    0.668650    8.061151    -1.398062    0.874246    9.529755    -5.368948    13.982399    2.808142    -3.983925    6.612243    10.260350    -16.714321    -36.002815    19.425322    -68.150703    10.806601    -37.983799    -116.281731    21.706295    -21.174677    9.707652    -1.331010    9.585075    8.214243    44.396896    3.796483    52.488567    -7.130199    -37.370525    125.855469    -22.031208    -23.585453    -10.362838    7.380128    -16.721094    3.876147    -0.901306    19.642971    16.425945    -9.555857    -6.254814    -12.052345    -0.171930    -0.445709    0.190732    -11.226545    -7.566331    -2.118536    10.288326    16.308321    -9.599154    -3.328837    -11.794157    -23.908163    20.567463    -68.759186    -30.999035    
-5.113127    82.610115    110.888603    -0.195327    -8.723051    -169.304153    -3.976845    -9.587661    -1.686408    0.635534    8.004376    -1.397211    0.879104    9.543400    -5.358133    13.950167    2.822489    -3.978420    6.646614    10.157319    -16.741346    -36.049931    19.343773    -68.103165    10.801456    -37.980408    -116.306129    21.725080    -21.169857    9.703371    -1.407476    9.469080    8.228663    44.371723    3.677453    52.469215    -7.086870    -37.370152    125.907043    -22.096392    -23.640207    -10.384570    7.356956    -16.661221    3.907731    -0.913407    19.641552    16.479523    -9.557771    -6.292111    -12.044742    -0.170279    -0.448309    0.188902    -11.265718    -7.513828    -2.056423    10.286025    16.223150    -9.582566    -3.305988    -11.771095    -23.866707    20.562307    -68.756187    -30.989660    
-5.152470    82.610504    110.875214    -0.217219    -8.706767    -169.414078    -3.967839    -9.599525    -1.687552    0.604558    7.952645    -1.396291    0.883492    9.552299    -5.346796    13.920473    2.834207    -3.971761    6.681990    10.060521    -16.765121    -36.099667    19.264271    -68.058273    10.796952    -37.974522    -116.329086    21.734245    -21.162861    9.696389    -1.479324    9.360895    8.238391    44.343639    3.561805    52.455601    -7.045046    -37.367397    125.962212    -22.155743    -23.689421    -10.404278    7.335607    -16.600370    3.935958    -0.926059    19.640463    16.538708    -9.559576    -6.328719    -12.036269    -0.169143    -0.451061    0.187642    -11.302912    -7.463437    -1.996432    10.283422    16.142300    -9.563139    -3.283458    -11.748775    -23.824627    20.557478    -68.754692    -30.981623    
-5.189611    82.610809    110.861053    -0.238587    -8.689702    -169.526245    -3.961023    -9.613343    -1.688792    0.576112    7.906319    -1.395386    0.886667    9.556187    -5.334933    13.893410    2.844023    -3.963947    6.717104    9.969769    -16.786375    -36.150932    19.187475    -68.014313    10.793430    -37.967449    -116.350311    21.734892    -21.154440    9.688304    -1.546712    9.259969    8.243951    44.313145    3.451291    52.446587    -7.005447    -37.362396    126.020210    -22.209354    -23.732306    -10.422173    7.316059    -16.538172    3.961730    -0.938932    19.639147    16.602350    -9.561448    -6.364630    -12.026893    -0.168593    -0.453799    0.187033    -11.338120    -7.415401    -1.939122    10.280350    16.066385    -9.540733    -3.260890    -11.727342    -23.781498    20.552929    -68.754562    -30.974894    
